<svg width="229" height="437" viewBox="0 0 229 437" fill="none" xmlns="http://www.w3.org/2000/svg">
<path d="M229 2.63452C109.81 2.63452 13 99.6107 13 218.635C13 337.658 109.976 434.635 229 434.635" stroke="url(#paint0_linear_24_733)" stroke-width="3.31634" stroke-miterlimit="10"/>
<g opacity="0.3">
<path d="M104.946 395.778C108.33 391.459 107.407 385.134 103.1 381.741C98.7923 378.347 92.485 379.118 89.1006 383.592C85.7162 387.911 86.4854 394.236 90.9466 397.629C92.7927 399.018 94.9464 399.635 97.1001 399.635C100.023 399.635 102.946 398.246 104.946 395.778Z" fill="url(#paint1_linear_24_733)"/>
<path d="M104.946 395.778C108.33 391.459 107.407 385.134 103.1 381.741C98.7923 378.347 92.485 379.118 89.1006 383.592C85.7162 387.911 86.4854 394.236 90.9466 397.629C92.7927 399.018 94.9464 399.635 97.1001 399.635C100.023 399.635 102.946 398.246 104.946 395.778Z" fill="url(#paint2_linear_24_733)"/>
</g>
<g opacity="0.3">
<path d="M38.4876 322.556C43.4084 320.092 45.4075 314.085 42.9471 309.156C40.4866 304.227 34.4894 302.225 29.5685 304.689C24.6477 307.154 22.6486 313.161 24.9553 318.09C26.6468 321.632 30.1836 323.635 33.8743 323.635C35.5658 323.635 37.1036 323.172 38.4876 322.556Z" fill="url(#paint3_linear_24_733)"/>
<path d="M38.4876 322.556C43.4084 320.092 45.4075 314.085 42.9471 309.156C40.4866 304.227 34.4894 302.225 29.5685 304.689C24.6477 307.154 22.6486 313.161 24.9553 318.09C26.6468 321.632 30.1836 323.635 33.8743 323.635C35.5658 323.635 37.1036 323.172 38.4876 322.556Z" fill="url(#paint4_linear_24_733)"/>
</g>
<g opacity="0.3">
<path d="M20 217.635C20 212.096 15.5385 207.635 10 207.635C4.46154 207.635 0 212.096 0 217.635C0 223.173 4.46154 227.635 10 227.635C15.5385 227.635 20 223.173 20 217.635Z" fill="url(#paint5_linear_24_733)"/>
<path d="M20 217.635C20 212.096 15.5385 207.635 10 207.635C4.46154 207.635 0 212.096 0 217.635C0 223.173 4.46154 227.635 10 227.635C15.5385 227.635 20 223.173 20 217.635Z" fill="url(#paint6_linear_24_733)"/>
</g>
<g opacity="0.3">
<path d="M42.9441 127.09C45.4114 122.161 43.4067 116.154 38.4721 113.689C33.5374 111.225 27.5232 113.227 25.0559 118.156C22.5886 123.085 24.5933 129.092 29.528 131.556C30.9159 132.326 32.4579 132.635 34 132.635C37.701 132.635 41.2478 130.632 42.9441 127.09Z" fill="url(#paint7_linear_24_733)"/>
<path d="M42.9441 127.09C45.4114 122.161 43.4067 116.154 38.4721 113.689C33.5374 111.225 27.5232 113.227 25.0559 118.156C22.5886 123.085 24.5933 129.092 29.528 131.556C30.9159 132.326 32.4579 132.635 34 132.635C37.701 132.635 41.2478 130.632 42.9441 127.09Z" fill="url(#paint8_linear_24_733)"/>
</g>
<g opacity="0.3">
<path d="M103.091 54.6245C107.408 51.223 108.333 44.8838 104.941 40.5545C101.549 36.2253 95.2268 35.2976 90.9093 38.6991C86.5919 42.1007 85.6667 48.4399 89.059 52.7691C91.0635 55.3976 93.9932 56.6345 97.0771 56.6345C99.2358 56.6345 101.395 56.016 103.091 54.6245Z" fill="url(#paint9_linear_24_733)"/>
<path d="M103.091 54.6245C107.408 51.223 108.333 44.8838 104.941 40.5545C101.549 36.2253 95.2268 35.2976 90.9093 38.6991C86.5919 42.1007 85.6667 48.4399 89.059 52.7691C91.0635 55.3976 93.9932 56.6345 97.0771 56.6345C99.2358 56.6345 101.395 56.016 103.091 54.6245Z" fill="url(#paint10_linear_24_733)"/>
</g>
<defs>
<linearGradient id="paint0_linear_24_733" x1="229.075" y1="218.634" x2="11.3703" y2="218.634" gradientUnits="userSpaceOnUse">
<stop stop-color="white"/>
<stop offset="1" stop-color="#F5F5F5"/>
</linearGradient>
<linearGradient id="paint1_linear_24_733" x1="89.987" y1="382.527" x2="105.1" y2="397.599" gradientUnits="userSpaceOnUse">
<stop stop-color="#FFDB65"/>
<stop offset="1" stop-color="#FF8C33"/>
</linearGradient>
<linearGradient id="paint2_linear_24_733" x1="84.8971" y1="378.957" x2="108.496" y2="401.776" gradientUnits="userSpaceOnUse">
<stop stop-color="#FFDF00"/>
<stop offset="1" stop-color="#FFB800"/>
</linearGradient>
<linearGradient id="paint3_linear_24_733" x1="27.0032" y1="306.47" x2="42.0942" y2="321.536" gradientUnits="userSpaceOnUse">
<stop stop-color="#FFDB65"/>
<stop offset="1" stop-color="#FF8C33"/>
</linearGradient>
<linearGradient id="paint4_linear_24_733" x1="21.8971" y1="302.957" x2="45.4959" y2="325.776" gradientUnits="userSpaceOnUse">
<stop stop-color="#FFDF00"/>
<stop offset="1" stop-color="#FFB800"/>
</linearGradient>
<linearGradient id="paint5_linear_24_733" x1="2.95523" y1="210.602" x2="18.0229" y2="225.67" gradientUnits="userSpaceOnUse">
<stop stop-color="#FFDB65"/>
<stop offset="1" stop-color="#FF8C33"/>
</linearGradient>
<linearGradient id="paint6_linear_24_733" x1="-2.10292" y1="206.957" x2="21.4959" y2="229.776" gradientUnits="userSpaceOnUse">
<stop stop-color="#FFDF00"/>
<stop offset="1" stop-color="#FFB800"/>
</linearGradient>
<linearGradient id="paint7_linear_24_733" x1="26.899" y1="115.565" x2="41.9876" y2="130.671" gradientUnits="userSpaceOnUse">
<stop stop-color="#FFDB65"/>
<stop offset="1" stop-color="#FF8C33"/>
</linearGradient>
<linearGradient id="paint8_linear_24_733" x1="21.8971" y1="111.957" x2="45.4959" y2="134.776" gradientUnits="userSpaceOnUse">
<stop stop-color="#FFDF00"/>
<stop offset="1" stop-color="#FFB800"/>
</linearGradient>
<linearGradient id="paint9_linear_24_733" x1="89.959" y1="39.4897" x2="105.102" y2="54.5914" gradientUnits="userSpaceOnUse">
<stop stop-color="#FFDB65"/>
<stop offset="1" stop-color="#FF8C33"/>
</linearGradient>
<linearGradient id="paint10_linear_24_733" x1="84.8971" y1="35.9566" x2="108.496" y2="58.7764" gradientUnits="userSpaceOnUse">
<stop stop-color="#FFDF00"/>
<stop offset="1" stop-color="#FFB800"/>
</linearGradient>
</defs>
</svg>
