<svg width="659" height="671" viewBox="0 0 659 671" fill="none" xmlns="http://www.w3.org/2000/svg">
<g opacity="0.05">
<path d="M552.485 656.228C507.604 670.683 459.687 674.585 417.396 666.304C381.332 659.104 349.656 643.58 325.006 621.442C318.004 614.901 312.101 607.297 307.105 598.283C283.953 558.547 272.997 464.94 226.172 438.327C168.132 405.694 46.8973 421.213 8.12717 324.877C-3.27172 297.207 -1.181 263.419 10.2487 231.252C19.4878 205.285 37.2511 180.483 57.989 159.018C91.5324 124.11 132.27 96.0907 176.944 73.1406C202.293 59.9953 229.226 48.6915 255.683 38.5582C310.08 17.9225 393.578 92.5765 449.958 82.6242C535.246 67.9772 595.921 -22.6952 667.551 6.03026C683.554 12.5678 699.08 20.2758 712.408 30.1088C729.188 42.1073 743.146 56.1227 755.767 71.7858C773.138 92.973 786.828 116.654 797.743 141.421C835.729 228.221 837.22 333.439 794.606 433.195C745.267 546.195 647.558 625.734 552.485 656.228Z" fill="url(#paint0_linear_25_2015)"/>
<path d="M552.485 656.228C507.604 670.683 459.687 674.585 417.396 666.304C381.332 659.104 349.656 643.58 325.006 621.442C318.004 614.901 312.101 607.297 307.105 598.283C283.953 558.547 272.997 464.94 226.172 438.327C168.132 405.694 46.8973 421.213 8.12717 324.877C-3.27172 297.207 -1.181 263.419 10.2487 231.252C19.4878 205.285 37.2511 180.483 57.989 159.018C91.5324 124.11 132.27 96.0907 176.944 73.1406C202.293 59.9953 229.226 48.6915 255.683 38.5582C310.08 17.9225 393.578 92.5765 449.958 82.6242C535.246 67.9772 595.921 -22.6952 667.551 6.03026C683.554 12.5678 699.08 20.2758 712.408 30.1088C729.188 42.1073 743.146 56.1227 755.767 71.7858C773.138 92.973 786.828 116.654 797.743 141.421C835.729 228.221 837.22 333.439 794.606 433.195C745.267 546.195 647.558 625.734 552.485 656.228Z" fill="url(#paint1_linear_25_2015)"/>
</g>
<defs>
<linearGradient id="paint0_linear_25_2015" x1="793.401" y1="377.09" x2="79.4836" y2="85.6793" gradientUnits="userSpaceOnUse">
<stop offset="0.00666585" stop-color="#FF9C37"/>
<stop offset="0.9967" stop-color="#FF7300"/>
</linearGradient>
<linearGradient id="paint1_linear_25_2015" x1="684.443" y1="-235.596" x2="396.478" y2="941.824" gradientUnits="userSpaceOnUse">
<stop stop-color="#FFDF00"/>
<stop offset="1" stop-color="#FFB800"/>
</linearGradient>
</defs>
</svg>
